<svg width="10" height="7" viewBox="0 0 10 7" fill="none" xmlns="http://www.w3.org/2000/svg">
<path fill-rule="evenodd" clip-rule="evenodd" d="M8.99135 0.171143L3.77353 5.35119L1.02647 2.62121C0.97234 2.56321 0.906963 2.51659 0.834243 2.48425C0.761523 2.45191 0.682955 2.43449 0.603269 2.43298C0.523584 2.43147 0.444422 2.4459 0.370511 2.47546C0.296599 2.50503 0.229467 2.54906 0.173144 2.60498C0.116822 2.6609 0.0724756 2.72758 0.0427465 2.8009C0.0130173 2.87423 -0.00149508 2.95272 0.000121659 3.03174C0.0017384 3.11075 0.019429 3.18867 0.0521331 3.26074C0.0848373 3.33281 0.131877 3.39756 0.190441 3.45117L3.35501 6.59118C3.46636 6.70019 3.61656 6.76135 3.77304 6.76135C3.92951 6.76135 4.07968 6.70019 4.19104 6.59118L9.82636 1.00122C9.88132 0.946853 9.92493 0.882242 9.95473 0.811157C9.98452 0.740073 9.99991 0.663894 10 0.586914C10.0001 0.509934 9.9849 0.433704 9.95528 0.362549C9.92566 0.291393 9.8822 0.226618 9.82738 0.17212C9.77255 0.117621 9.70742 0.074467 9.63574 0.0449223C9.56405 0.0153777 9.48719 9.32861e-05 9.40956 4.27618e-07C9.33193 -9.24309e-05 9.25503 0.0149389 9.18327 0.044312C9.11151 0.073685 9.04631 0.116776 8.99135 0.171143Z" fill="#FE3E57"/>
</svg>
