<?xml version="1.0" encoding="UTF-8"?>
<svg xmlns="http://www.w3.org/2000/svg" xmlns:xlink="http://www.w3.org/1999/xlink" width="14px" height="14px" viewBox="0 0 14 14" version="1.1">
<g id="surface1">
<path style=" stroke:none;fill-rule:nonzero;fill:rgb(0%,0%,0%);fill-opacity:1;" d="M 13.78125 7 C 13.78125 3.253906 10.746094 0.21875 7 0.21875 C 3.253906 0.21875 0.21875 3.253906 0.21875 7 C 0.21875 10.382812 2.695312 13.191406 5.941406 13.699219 L 5.941406 8.957031 L 4.21875 8.957031 L 4.21875 7 L 5.941406 7 L 5.941406 5.507812 C 5.941406 3.808594 6.953125 2.867188 8.503906 2.867188 C 9.242188 2.867188 10.023438 2.996094 10.023438 2.996094 L 10.023438 4.664062 L 9.167969 4.664062 C 8.328125 4.664062 8.058594 5.191406 8.058594 5.726562 L 8.058594 7 L 9.9375 7 L 9.640625 8.957031 L 8.058594 8.957031 L 8.058594 13.699219 C 11.304688 13.191406 13.78125 10.382812 13.78125 7 Z M 13.78125 7 "/>
</g>
</svg>
